<?xml version="1.0" encoding="UTF-8"?>
<!DOCTYPE svg PUBLIC "-//W3C//DTD SVG 1.1//EN" "http://www.w3.org/Graphics/SVG/1.1/DTD/svg11.dtd">
<!-- Creator: CorelDRAW -->
<svg xmlns="http://www.w3.org/2000/svg" xml:space="preserve" width="0.590551in" height="0.590551in" style="shape-rendering:geometricPrecision; text-rendering:geometricPrecision; image-rendering:optimizeQuality; fill-rule:evenodd; clip-rule:evenodd"
viewBox="0 0 0.590551 0.590551"
 xmlns:xlink="http://www.w3.org/1999/xlink">
 <defs>
  <style type="text/css">
   <![CDATA[
    .fil0 {fill:#E6E7E8}
    .fil1 {fill:#201E1E;fill-rule:nonzero}
    .fil2 {fill:#ED3237;fill-rule:nonzero}
   ]]>
  </style>
 </defs>
 <g id="Layer_x0020_1">
  <metadata id="CorelCorpID_0Corel-Layer"/>
  <g id="_678045320">
   <rect id="_351274456" class="fil0" x="0.00259842" y="0.00259842" width="0.585354" height="0.585354" rx="0.186433" ry="0.186433"/>
   <g>
    <path id="_351274288" class="fil1" d="M0.107232 0.226846c0.0348031,-0.0840079 0.13422,-0.113413 0.204898,-0.0658858 0.0109685,0.00738976 0.0260945,0.0219488 0.0453701,0.0436772 0.0331693,0.0374449 0.0667717,0.0743937 0.100803,0.11085 0.0256693,0.0274567 0.0312008,0.0755276 0.00492913,0.105362 -0.000755906,0.000870079 -0.00201969,0.00092126 -0.00285827,0.000114173 -0.0540079,-0.0518819 -0.103803,-0.109756 -0.154634,-0.165335 -0.0179646,-0.0196811 -0.0313425,-0.0316732 -0.040122,-0.0359764 -0.0171339,-0.00840157 -0.035626,-0.00848031 -0.0554724,-0.000232283 -0.041122,0.0171496 -0.0605748,0.072378 -0.0389094,0.114228 0.0185984,0.0359764 0.0611142,0.0556575 0.095878,0.0332913 0.0234646,-0.0150906 0.0437047,-0.0338976 0.0607205,-0.0564331 0.00147638,-0.00195669 0.00413386,-0.00223622 0.00592913,-0.000625984 9.84252e-005,8.66142e-005 0.000192913,0.000181102 0.000283465,0.000275591l0.0419764 0.0448465c0.00220079,0.00235039 0.00244488,0.00612205 0.000570866,0.0087874 -0.0305197,0.0430157 -0.0801732,0.0833898 -0.130969,0.0880157 -0.0567559,0.00517323 -0.110728,-0.029752 -0.136681,-0.0842835 -0.0213937,-0.044937 -0.0219606,-0.0918268 -0.0017126,-0.140677z"/>
    <path id="_351274720" class="fil2" d="M0.404224 0.223075c0.0257008,-0.0243504 0.0651457,-0.0209685 0.0908819,-0.00112598 0.00317323,0.00243701 0.00393307,0.00721654 0.00169685,0.0106772 -0.000251969,0.00038189 -0.000527559,0.000740157 -0.000838583,0.00106299l-0.0415512 0.0445c-0.00297244,0.00318504 -0.00593701,0.00316142 -0.00888976,-8.26772e-005l-0.041622 -0.0460118c-0.00220079,-0.0024252 -0.0021811,-0.00634252 4.72441e-005,-0.00874409 9.05512e-005,-9.05512e-005 0.000181102,-0.000188976 0.000275591,-0.000275591z"/>
   </g>
  </g>
 </g>
</svg>
